<mxfile host="app.diagrams.net" modified="2021-09-16T09:15:41.362Z" agent="5.0 (Windows NT 10.0; Win64; x64) AppleWebKit/537.36 (KHTML, like Gecko) Chrome/93.0.4577.63 Safari/537.36" etag="sMvv21a2RwOrhUs7K2dz" version="15.1.4" type="github">
  <diagram id="9KWlCxBtAJUTy24nz9UL" name="Page-1">
    <mxGraphModel dx="1220" dy="1122" grid="1" gridSize="10" guides="1" tooltips="1" connect="1" arrows="1" fold="1" page="1" pageScale="1" pageWidth="827" pageHeight="1169" math="0" shadow="0">
      <root>
        <mxCell id="0" />
        <mxCell id="1" parent="0" />
        <mxCell id="wKFYN8VRZriTyTdDHUOv-1" value="&lt;b style=&quot;font-size: 14px&quot;&gt;&lt;br&gt;&lt;br&gt;&lt;br&gt;&lt;br&gt;To-do App User&lt;/b&gt;&lt;br&gt;[Person]" style="shape=actor;whiteSpace=wrap;html=1;fillColor=#1ba1e2;strokeColor=#006EAF;fontColor=#ffffff;" parent="1" vertex="1">
          <mxGeometry x="160" y="120" width="150" height="150" as="geometry" />
        </mxCell>
        <mxCell id="wKFYN8VRZriTyTdDHUOv-2" value="&lt;font&gt;&lt;b style=&quot;font-size: 12px&quot;&gt;Trello&lt;/b&gt;&lt;br&gt;[Software System]&lt;br&gt;&lt;br&gt;&lt;div style=&quot;text-align: left&quot;&gt;Stores all the to-do items and their properties&lt;/div&gt;&lt;/font&gt;" style="rounded=1;whiteSpace=wrap;html=1;fillColor=#f5f5f5;strokeColor=#666666;fontColor=#333333;" parent="1" vertex="1">
          <mxGeometry x="510" y="685" width="210" height="160" as="geometry" />
        </mxCell>
        <mxCell id="wKFYN8VRZriTyTdDHUOv-4" value="API calls" style="text;html=1;strokeColor=none;fillColor=none;align=center;verticalAlign=middle;whiteSpace=wrap;rounded=0;" parent="1" vertex="1">
          <mxGeometry x="320" y="740" width="80" height="20" as="geometry" />
        </mxCell>
        <mxCell id="wKFYN8VRZriTyTdDHUOv-7" value="&lt;b&gt;&lt;font style=&quot;font-size: 14px&quot;&gt;Gunicorn Server&lt;br&gt;&lt;/font&gt;&lt;/b&gt;&lt;br&gt;&lt;br&gt;&lt;div style=&quot;text-align: left&quot;&gt;&lt;span&gt;Provides interface to the user and serves the application&lt;/span&gt;&lt;/div&gt;" style="whiteSpace=wrap;html=1;aspect=fixed;fillColor=#dae8fc;strokeColor=#6c8ebf;" parent="1" vertex="1">
          <mxGeometry x="40" y="460" width="170" height="170" as="geometry" />
        </mxCell>
        <mxCell id="wKFYN8VRZriTyTdDHUOv-19" value="&lt;span style=&quot;color: rgb(0, 0, 0); font-family: helvetica; font-size: 12px; font-style: normal; font-weight: 400; letter-spacing: normal; text-align: center; text-indent: 0px; text-transform: none; word-spacing: 0px; background-color: rgb(248, 249, 250); display: inline; float: none;&quot;&gt;visits using http://localhost:5000/&lt;/span&gt;" style="text;whiteSpace=wrap;html=1;" parent="1" vertex="1">
          <mxGeometry x="70" y="360" width="200" height="30" as="geometry" />
        </mxCell>
        <mxCell id="wKFYN8VRZriTyTdDHUOv-20" value="" style="endArrow=classic;html=1;exitX=0.25;exitY=1;exitDx=0;exitDy=0;entryX=0.5;entryY=0;entryDx=0;entryDy=0;" parent="1" source="wKFYN8VRZriTyTdDHUOv-1" target="wKFYN8VRZriTyTdDHUOv-7" edge="1">
          <mxGeometry width="50" height="50" relative="1" as="geometry">
            <mxPoint x="390" y="580" as="sourcePoint" />
            <mxPoint x="440" y="530" as="targetPoint" />
          </mxGeometry>
        </mxCell>
        <mxCell id="sQ0_-5Xyih97Kk29VXXZ-1" value="" style="endArrow=classic;startArrow=classic;html=1;exitX=1;exitY=0.5;exitDx=0;exitDy=0;entryX=0;entryY=0.5;entryDx=0;entryDy=0;" parent="1" source="apSl3eAkgDJCrOUvFfxd-1" target="wKFYN8VRZriTyTdDHUOv-2" edge="1">
          <mxGeometry width="50" height="50" relative="1" as="geometry">
            <mxPoint x="390" y="590" as="sourcePoint" />
            <mxPoint x="650" y="540" as="targetPoint" />
          </mxGeometry>
        </mxCell>
        <mxCell id="apSl3eAkgDJCrOUvFfxd-1" value="&lt;b&gt;&lt;font style=&quot;font-size: 14px&quot;&gt;To-Do Application&lt;br&gt;&lt;/font&gt;&lt;/b&gt;[Flask]&lt;br&gt;&lt;br&gt;&lt;div style=&quot;text-align: left&quot;&gt;&lt;span&gt;Allows users to add, view and interact with their to-do items&lt;/span&gt;&lt;/div&gt;" style="whiteSpace=wrap;html=1;aspect=fixed;fillColor=#dae8fc;strokeColor=#6c8ebf;" parent="1" vertex="1">
          <mxGeometry x="40" y="680" width="170" height="170" as="geometry" />
        </mxCell>
        <mxCell id="apSl3eAkgDJCrOUvFfxd-3" value="" style="endArrow=classic;startArrow=classic;html=1;exitX=0.5;exitY=0;exitDx=0;exitDy=0;entryX=0.5;entryY=1;entryDx=0;entryDy=0;" parent="1" source="apSl3eAkgDJCrOUvFfxd-1" target="wKFYN8VRZriTyTdDHUOv-7" edge="1">
          <mxGeometry width="50" height="50" relative="1" as="geometry">
            <mxPoint x="400" y="590" as="sourcePoint" />
            <mxPoint x="450" y="540" as="targetPoint" />
          </mxGeometry>
        </mxCell>
      </root>
    </mxGraphModel>
  </diagram>
</mxfile>
